<svg xmlns="http://www.w3.org/2000/svg" width="35.029" height="35.029" viewBox="0 0 35.029 35.029">
  <g id="Path_2126" data-name="Path 2126" fill="none">
    <path d="M17.515,0A17.632,17.632,0,0,1,30.679,5.962a17.258,17.258,0,0,1,4.35,11.553A17.515,17.515,0,1,1,17.515,0Z" stroke="none"/>
    <path d="M 17.5146484375 1.5 C 13.23697853088379 1.5 9.215349197387695 3.165807723999023 6.190578460693359 6.190578460693359 C 3.165807723999023 9.215349197387695 1.5 13.23697853088379 1.5 17.5146484375 C 1.5 21.79231834411621 3.165807723999023 25.81394958496094 6.190578460693359 28.83871841430664 C 9.215349197387695 31.86348915100098 13.23697853088379 33.529296875 17.5146484375 33.529296875 C 21.79231834411621 33.529296875 25.81394958496094 31.86348915100098 28.83871841430664 28.83871841430664 C 31.86348915100098 25.81394958496094 33.529296875 21.79231834411621 33.529296875 17.5146484375 C 33.529296875 13.57695770263672 32.08635711669922 9.734397888183594 29.56922912597656 6.970869064331055 C 26.3636589050293 3.442928314208984 22.08258819580078 1.5 17.5146484375 1.5 M 17.5146484375 0 C 22.65104866027832 0 27.27103805541992 2.211017608642578 30.67939758300781 5.962148666381836 C 33.30445861816406 8.844167709350586 35.029296875 12.97797775268555 35.029296875 17.5146484375 C 35.029296875 27.18771743774414 27.18771743774414 35.029296875 17.5146484375 35.029296875 C 7.841577529907227 35.029296875 0 27.18771743774414 0 17.5146484375 C 0 7.841577529907227 7.841577529907227 0 17.5146484375 0 Z" stroke="none" fill="#1e2327"/>
  </g>
</svg>
