<?xml version="1.0" encoding="UTF-8"?>
<!-- Generator: Adobe Illustrator 26.0.2, SVG Export Plug-In . SVG Version: 6.00 Build 0)  -->
<svg version="1.1" id="Layer_1" xmlns="http://www.w3.org/2000/svg" xmlns:xlink="http://www.w3.org/1999/xlink" x="0px" y="0px" viewBox="0 0 1056.6 800.9" style="enable-background:new 0 0 1056.6 800.9;" xml:space="preserve">
<style type="text/css">
	.st0{fill:none;}
	.st1{fill:#0E183F;}
	.st2{fill:#FF9676;}
	.st3{fill:#A7815F;stroke:#000000;stroke-width:2;stroke-miterlimit:10;}
	.st4{fill:#A7815F;stroke:#000000;stroke-width:2;stroke-linecap:round;stroke-linejoin:round;}
	.st5{fill:none;stroke:#000000;stroke-width:2;stroke-linecap:round;stroke-linejoin:round;}
	.st6{stroke:#000000;stroke-linecap:round;stroke-linejoin:round;}
	.st7{fill:#007429;}
	.st8{fill:#A7815F;stroke:#0E183F;stroke-width:2;stroke-linecap:round;stroke-linejoin:round;}
	.st9{fill:#F05A24;}
	.st10{fill:url(#SVGID_1_);stroke:#0E183F;stroke-width:2;stroke-miterlimit:10;}
	.st11{fill:#0E183F;stroke:#0E183F;stroke-width:2;stroke-linecap:round;stroke-linejoin:round;}
	.st12{fill:url(#SVGID_00000076604220439332095310000015843872827181317786_);stroke:#0E183F;stroke-width:2;stroke-miterlimit:10;}
	.st13{fill:none;stroke:#0E183F;stroke-width:2;stroke-miterlimit:10;}
	.st14{fill:#F5A790;stroke:#000000;stroke-width:2;stroke-miterlimit:10;}
	.st15{fill:#F5A790;stroke:#0E183F;stroke-width:2;stroke-linecap:round;stroke-linejoin:round;}
	.st16{fill:none;stroke:#0E183F;stroke-width:2;stroke-linecap:round;stroke-linejoin:round;}
	.st17{fill:#0E183F;stroke:#0E183F;stroke-width:2;stroke-miterlimit:10;}
	.st18{fill:#A7815F;}
	.st19{fill:none;stroke:#FFFFFF;stroke-width:2;stroke-linecap:round;stroke-linejoin:round;}
	.st20{fill:#FFFFFF;stroke:#E9E3E2;stroke-width:2;}
	.st21{fill:#76706F;}
</style>
<pattern y="800.9" width="22" height="22" patternUnits="userSpaceOnUse" id="New_Pattern_Swatch_2" viewBox="2.8 -24.8 22 22" style="overflow:visible;">
	<g>
		<rect x="2.8" y="-24.8" class="st0" width="22" height="22"/>
		<rect x="2.8" y="-24.8" class="st0" width="22" height="22"/>
		<circle class="st1" cx="19.3" cy="-24.8" r="2.8"/>
		<circle class="st1" cx="8.3" cy="-24.8" r="2.8"/>
		<circle class="st1" cx="24.8" cy="-13.8" r="2.8"/>
		<circle class="st1" cx="13.8" cy="-13.8" r="2.8"/>
		<circle class="st1" cx="2.8" cy="-13.8" r="2.8"/>
		<circle class="st1" cx="19.3" cy="-2.8" r="2.8"/>
		<circle class="st1" cx="8.3" cy="-2.8" r="2.8"/>
	</g>
</pattern>
<pattern y="800.9" width="22" height="22" patternUnits="userSpaceOnUse" id="New_Pattern_Swatch_3" viewBox="2.8 -24.8 22 22" style="overflow:visible;">
	<g>
		<rect x="2.8" y="-24.8" class="st0" width="22" height="22"/>
		<rect x="2.8" y="-24.8" class="st0" width="22" height="22"/>
		<circle class="st2" cx="19.3" cy="-24.8" r="2.8"/>
		<circle class="st2" cx="8.3" cy="-24.8" r="2.8"/>
		<circle class="st2" cx="24.8" cy="-13.8" r="2.8"/>
		<circle class="st2" cx="13.8" cy="-13.8" r="2.8"/>
		<circle class="st2" cx="2.8" cy="-13.8" r="2.8"/>
		<circle class="st2" cx="19.3" cy="-2.8" r="2.8"/>
		<circle class="st2" cx="8.3" cy="-2.8" r="2.8"/>
	</g>
</pattern>
<g id="Layer_2_00000044178913047851196600000001289160629217175996_">
	<g id="Layer_2-2">
		<path class="st3" d="M198.1,48.5l11.9,36c5.3,16.3,22.8,25.1,39.1,19.8c0.7-0.2,1.3-0.5,1.9-0.7l0,0c15.9-6.4,23.6-24.5,17.2-40.3    c-0.3-0.8-0.7-1.6-1.1-2.3l-18.8-37.3L198.1,48.5z"/>
		<path class="st4" d="M259.7,51.7l8.7-3.5c1.6-0.7,3.5,0.1,4.1,1.8l0,0c0.7,1.6-0.1,3.5-1.8,4.1l-8.7,3.5"/>
		<circle cx="247.3" cy="54.6" r="2.3"/>
		<circle cx="250.9" cy="51.8" r="2.3"/>
		<path class="st5" d="M241.9,70.2c0,0,3.3,1.3,8.9-1.6"/>
		<path class="st6" d="M192.5,75.2l-5.3-12.1c-4.7-10.6-4.6-22.7,0.3-33.2l0,0c7.4-15.9,22.5-26.8,39.9-28.7l4.8-0.6    c7.5-0.9,15,2.1,19.9,7.9l0,0c4.6,5.5,6.4,12.8,4.8,19.8l-0.2,0.7c-1.7,7.2-6.8,13.2-13.6,16l-29.8,12L192.5,75.2z"/>
		<path class="st4" d="M206.4,61.3c-5.3-2.7-11.8-0.9-15,4.1L191,66c-2.3,3.6-2.5,8.1-0.5,11.9l2.1,3.9c1.4,2.6,3.7,4.5,6.4,5.5    l1.5,0.5c2.7,0.9,5.6,0.9,8.2-0.2l5.8-2.3"/>
		<path d="M203,71.7c-0.3-0.9-1.1-1.5-2-1.5c-1.3,0-2.6,0.6-3.4,1.7l-0.1,0.2c-0.8,1.2-0.8,2.7-0.2,3.9l0.7,1.3    c0.5,0.8,1.2,1.5,2.1,1.8l0.5,0.2c0.9,0.3,1.8,0.3,2.7-0.1l0,0c1.1-0.4,1.6-1.6,1.2-2.7L203,71.7z"/>
		<polygon class="st6" points="194.8,40 210.8,86.8 223.9,82.3 209.9,35.1   "/>
		<path class="st7" d="M143.7,117.2c54.2,3.5,150.3,9.9,187.9,12.4c10,0.7,19.1,5.8,24.9,13.9l88.2,123.8l-46.5,57.8l-46.5-43.3    l19.3,117l-256.1-1.8l-6.5-244c-1.5-18.3,12.1-34.4,30.5-35.9C140.4,117.1,142.1,117.1,143.7,117.2z"/>
		<path class="st7" d="M110.3,139.7c0,0-69.7,154.5-73.4,182.4s4.5,42.1,27.2,51.3s131.8,52,131.8,52l16.4-78.4L148,307.6l43-91.6"/>
		<polygon class="st7" points="22.2,210.5 36.2,337.1 136.7,311.3 95.8,187.4   "/>
		<path class="st8" d="M33.6,227.6c0,0-10.8-13.1-20.2-34.6s-16.7-35.5-9.6-40.6c8.3-6,35.1,34.7,35.1,34.7s-24-39-21.6-46.9    c1.8-5.8,9.4-6.4,19.1,7S56.1,172,56.1,172s-20.3-47.3-8.1-51.4c12.9-4.3,35.2,54.6,35.2,54.6s20-30.4,29.5-24.4    s-6.8,24.7-5.4,29.8s15.7,25-13.1,44.7S47.7,242,33.6,227.6z"/>
		<path class="st8" d="M30.7,194.1c0,0,19.8-18.3,35.4-26"/>
		<polygon class="st7" points="459.1,210.5 445.2,337.1 344.6,311.3 385.6,187.4   "/>
		<path class="st8" d="M447.7,227.6c0,0,10.8-13.1,20.2-34.6s16.7-35.5,9.6-40.6c-8.3-6-35.1,34.7-35.1,34.7s24-39,21.6-46.9    c-1.8-5.8-9.4-6.4-19.1,7S425.2,172,425.2,172s20.3-47.3,8.1-51.4c-12.9-4.3-35.1,54.6-35.1,54.6s-20-30.4-29.5-24.4    s6.7,24.7,5.4,29.8s-15.7,25,13.1,44.7S433.7,242,447.7,227.6z"/>
		<path class="st8" d="M450.6,194.1c0,0-19.8-18.3-35.4-26"/>
		<polygon class="st9" points="604.6,206.1 604.6,372.4 709.7,279.3 651.6,200.6   "/>
		<pattern id="SVGID_1_" xlink:href="#New_Pattern_Swatch_3" patternTransform="matrix(1.02 0 0 -1.02 377.963 -17307.4844)">
		</pattern>
		<path class="st10" d="M371,398.8L435.9,545c5.2,11.7,5.3,25,0.2,36.8l-78.8,183.1H95.8l86.7-201.5l-60.6-173.8L371,398.8z"/>
		<path class="st11" d="M772.2,766.3v33.7h-24.1l-6.3-11.5l-8.2,11.5H558.2l0.3-0.5c12.8-18.4,33.1-30.2,55.4-32.3l9.9-0.9    L772.2,766.3z"/>
		<path class="st11" d="M1012.8,766.3v33.7h-24.1l-6.3-11.5l-8.2,11.5H798.8l0.3-0.5c12.8-18.4,33.1-30.2,55.4-32.3l9.9-0.9H1012.8z    "/>
		<path class="st9" d="M939,167c0.3-19.4-15.1-35.3-34.5-35.6c-0.2,0-0.4,0-0.6,0H763.6c-16.8,0-31.2,11.9-34.4,28.4l-40.9,211.5    h247.2L939,167z"/>
		
			<pattern id="SVGID_00000020400110649799423450000005191005165997991825_" xlink:href="#New_Pattern_Swatch_2" patternTransform="matrix(1.02 0 0 -1.02 377.963 -17307.4844)">
		</pattern>
		
			<polygon style="fill:url(#SVGID_00000020400110649799423450000005191005165997991825_);stroke:#0E183F;stroke-width:2;stroke-miterlimit:10;" points="    1012.8,764.9 935.5,371.2 844.5,371.2 807.8,371.2 688.3,371.2 616.7,764.9 774.5,764.9 819.8,556.6 849.3,764.9   "/>
		<line class="st13" x1="810.1" y1="481.1" x2="827.3" y2="609.4"/>
		<path class="st1" d="M792,45.1l-29.7,47.7c-2.9,4.7-3.4,10.5-1.3,15.6l0.6,1.5c3.3,8.1,12.2,12.4,20.6,10l0,0    c5.6-1.6,10-5.8,11.7-11.4l17.8-56.3L792,45.1z"/>
		<path class="st11" d="M862.3,49.6l7.1,25.4c2.6,9.2,8,17.4,15.5,23.4l0,0c11.8,9.4,13.7,26.5,4.3,38.3c-0.6,0.7-1.1,1.4-1.8,2l0,0    c-8.1,8.4-20.7,10.6-31.2,5.6l0,0c-15.1-7.1-22.7-24.2-18-40.2l7.5-25.6L862.3,49.6z"/>
		<path class="st14" d="M848.4,51.3l-1.9,37.5c-0.8,16.9-15.2,30-32.1,29.2c-0.7,0-1.4-0.1-2.1-0.2l0,0c-16.8-2-28.9-17.2-27-34    c0.1-0.8,0.2-1.7,0.4-2.5l8.1-40.6L848.4,51.3z"/>
		<path class="st15" d="M791.2,70.5l-9.2-1.1c-1.7-0.2-3.3,1-3.5,2.8l0,0c-0.2,1.7,1,3.3,2.8,3.5c0,0,0,0,0,0l9.2,1.1"/>
		<line class="st13" x1="843.8" y1="65.7" x2="843.8" y2="65.7"/>
		<circle class="st1" cx="803" cy="70" r="2.3"/>
		<circle class="st1" cx="798.8" cy="68.3" r="2.3"/>
		<path class="st16" d="M812.3,83.4c0,0-2.8,2.1-8.9,0.8"/>
		<path class="st11" d="M860.7,75.3l1.9-12.9c1.7-11.3-1.6-22.8-9-31.6l0,0c-11.2-13.2-28.5-19.7-45.6-17l-4.7,0.7    c-7.4,1.1-13.8,5.9-17,12.8l0,0c-3,6.4-2.8,13.9,0.6,20.2l0.3,0.6c3.5,6.5,9.9,10.8,17.2,11.7l31.6,3.7L860.7,75.3z"/>
		<path class="st15" d="M843.8,65.7c4.4-3.9,11-3.9,15.3,0l0.6,0.5c3.2,2.8,4.5,7.1,3.6,11.2l-1,4.2c-0.6,2.8-2.3,5.3-4.7,6.9    l-1.3,0.9c-2.3,1.6-5.1,2.3-7.9,2l-6.2-0.7"/>
		<path class="st1" d="M849.8,74.7c0-0.9,0.6-1.6,1.4-1.9c1.3-0.4,2.7-0.1,3.7,0.8l0.2,0.2c1,0.9,1.5,2.3,1.2,3.7l-0.3,1.4    c-0.2,0.9-0.8,1.7-1.5,2.3l-0.4,0.3c-0.8,0.5-1.7,0.8-2.6,0.7l0,0c-1.1-0.1-2-1.1-1.9-2.3L849.8,74.7z"/>
		<path class="st11" d="M850.5,60.2l-0.6,1.9c-3.8,12.3-21.4,13.1-25.6,0.9c0-0.1-0.1-0.3-0.1-0.4C819.5,48.2,850.5,60.2,850.5,60.2    z"/>
		<path class="st17" d="M857.1,21.4l7.8-10.5c2.5-3.3,6.4-5.2,10.6-4.9l0,0c5.7,0.3,10,5.2,9.6,10.8c-0.1,1.2-0.4,2.5-0.9,3.6l0,0    c-1.6,3.5-5,5.8-8.8,6l-15.1,0.8c-2,0.1-3.7-1.5-3.8-3.5C856.4,22.9,856.6,22.1,857.1,21.4z"/>
		<path class="st9" d="M938.1,158.5c0,0,90.5,165.3,60.7,197.1c-42.3,45.2-122.1-17.3-147.1-40.4S938.1,158.5,938.1,158.5z"/>
		<path class="st9" d="M735.3,145.6c0,0-103.5,146.2-89,200.1c11.5,42.8,86.1,16.8,102.4-13"/>
		<line class="st13" x1="688.3" y1="371.2" x2="723.8" y2="204.6"/>
		<path class="st13" d="M851.7,315.2c0,0,40.1,56.2,116.2,56"/>
		<path class="st11" d="M95.8,764.9v33.7h24.1l6.3-11.5l8.2,11.5h175.4l-0.3-0.5c-12.8-18.4-33.1-30.2-55.4-32.3l-9.9-0.9H95.8z"/>
		<path class="st11" d="M208.5,764.9v33.7h24.1l6.3-11.5l8.2,11.5h175.4l-0.3-0.5c-12.8-18.4-33.1-30.2-55.4-32.3l-9.9-0.9    L208.5,764.9z"/>
		
			<rect x="116.5" y="368.2" transform="matrix(0.2023 -0.9793 0.9793 0.2023 -271.8221 448.8087)" class="st18" width="46.2" height="46.2"/>
		<path class="st18" d="M130.3,378.8c0,0,17.3-0.1,30.9,11.1s16.8,22.1,16.5,28.9s-4.1,14-13.2,10.4c-1.5-0.6-2.9-1.2-4.2-1.8"/>
		<path class="st18" d="M136.7,362.7c11.2-0.2,22.4,2.1,32.6,6.7c16.8,7.7,23.1,20.6,22.5,28.1c-0.4,4.7-4.4,11.3-14.6,6.6    c-1.8-0.8-3.5-1.7-5.1-2.5"/>
		<path class="st4" d="M126.6,397.1c0,0,17.4,3.3,26.7,17.3s10.7,22.4,6.8,27.4s-10.1,3.6-17.7-3.7S127,423.4,127,423.4    s-24.8,10.5-39.4,3.4c-1.2-0.6-2.3-1.2-3.4-2c-11.2-7.9-13.7-23.6-6.1-35.1l2-3c13.5-20.3,34.5-34.5,58.3-39.3    c7.7-1.5,14.4-1.8,17.9,0.5c9,6.1,3.6,13.3-1.6,16.7"/>
		<path class="st5" d="M130.3,378.8c0,0,17.3-0.1,30.9,11.1s16.8,22.1,16.5,28.9s-4.1,14-13.2,10.4c-1.5-0.6-2.9-1.2-4.2-1.8"/>
		<path class="st5" d="M136.7,362.7c11.2-0.2,22.4,2.1,32.6,6.7c16.8,7.7,23.1,20.6,22.5,28.1c-0.4,4.7-4.4,11.3-14.6,6.6    c-1.8-0.8-3.5-1.7-5.1-2.5"/>
		<line class="st13" x1="244.9" y1="764.9" x2="320.3" y2="589.5"/>
		<path class="st19" d="M309.7,798.5l-0.3-0.5c-12.8-18.4-33.1-30.2-55.4-32.3l-9.9-0.9"/>
		<path class="st20" d="M63.9,309.9c0-23.8,19.3-43.2,43.2-43.2c0,0,0,0,0,0h411.5v247.5H107.1c-23.8,0-43.2-19.3-43.2-43.2V309.9z"/>
		<path class="st21" d="M173.8,374.2v45h9.9v-64.5H174c0,8.6-3.7,11.5-12.7,11.4H158v8.3C163.5,374.4,169.2,374.4,173.8,374.2z     M220.8,420.2c13.5,0,23.6-12.5,23.6-33.3c0-21.1-10-33.1-23.6-33.1c-13.8,0-23.8,12.1-23.8,33.2    C197,407.8,207.1,420.3,220.8,420.2L220.8,420.2z M207.2,387c0-16.4,5.6-23.9,13.6-23.9s13.4,7.5,13.4,23.9c0,16.1-5.6,24-13.4,24    S207.2,403.1,207.2,387z M253.9,419.3h19.2c21.5,0,34-14.1,34-32.1c0-18.7-12.3-32.4-34-32.3h-19.2L253.9,419.3z M263.9,410v-45.9    h9.1c15.8,0,23.2,10.4,23.2,23.1c0,11.8-7,22.7-23.2,22.7L263.9,410z M317.3,419.3h43.8V410h-33.8v-55.2h-10L317.3,419.3z     M395,420.3c13,0,25-8.4,29.3-22.7l-9.8-2.2c-3,8.7-9.7,15-19.6,15c-12.4,0-21.4-10.2-21.4-23.5c0-13.4,9.1-23.3,21-23.3    c8.8,0,16.5,4.6,20,15.1l9.8-2.2c-4.2-14.7-16.7-22.8-29.6-22.8c-17.6,0-32,14.2-32,33.1C362.8,405.3,376.4,420.3,395,420.3    L395,420.3z"/>
		<path class="st20" d="M521.4,266.8h478.1c24.8,0,45,20.1,45,45v157.5c0,24.8-20.1,45-45,45H521.4V266.8z"/>
		<path class="st21" d="M637.3,419.3h10.1v-55.1h21.2v-9.3h-52.5v9.3h21.2L637.3,419.3z M687.3,420.3c13.4,0,22.5-10.3,22.5-23.4    s-9.1-23.3-22.5-23.3c-13.2,0-22.6,10.2-22.6,23.3S674.1,420.3,687.3,420.3L687.3,420.3z M674.5,396.9c0-8.8,5.1-14.8,12.7-14.8    s12.7,6,12.7,14.8s-5,14.9-12.7,14.9S674.5,405.7,674.5,396.9z M719.9,419.3h9.4v-64.4h-9.4V419.3z M742.8,419.3h9.4v-64.4h-9.4    V419.3z M762.6,400.4h28.7v-8.9h-28.7V400.4z M804.9,419.3h9.4v-36.6h10.8v-8h-10.8v-6.1c0-4.4,1.9-6.4,6.3-6.4    c1.5,0,3.1,0.2,4.6,0.5v-7.9c-1.8-0.3-3.5-0.5-5.3-0.5c-10.8,0-15,5.5-15,14.4v6h-8v8h8L804.9,419.3z M834.1,419.3h9.4v-21    c0-8.8,4.3-15.4,14.4-15.4c1.4,0,2.8,0.2,4.1,0.5v-8.8c-1.2-0.2-2.3-0.3-3.5-0.3c-6.9,0-11.7,3.6-14.8,8.8h-0.7v-8.6h-8.9V419.3z     M888.8,420.3c9.9,0,18-5.2,20.2-14.2l-9-1.4c-1.5,5.1-5.2,7.4-11,7.4c-7.5,0-11.8-5.5-12.3-13.4h33.2v-1.7    c0-14.2-8.8-23.3-21-23.3c-13,0-22.1,10.1-22.2,23.3S875.8,420.3,888.8,420.3L888.8,420.3z M877.1,391.8    c1.5-6.5,5.8-10.5,11.6-10.5s10.7,3.5,11.7,10.5H877.1z M939.3,420.3c9.9,0,18-5.2,20.2-14.2l-9-1.4c-1.5,5.1-5.2,7.4-11,7.4    c-7.5,0-11.8-5.5-12.3-13.4h33.2v-1.7c0-14.2-8.8-23.3-21-23.3c-13,0-22.1,10.1-22.2,23.3S926.3,420.3,939.3,420.3L939.3,420.3z     M927.6,391.8c1.5-6.5,5.8-10.5,11.6-10.5s10.7,3.5,11.7,10.5H927.6z"/>
		<path class="st14" d="M578.9,240.9c0,0-9.9,0.5-13.1-8.2s4.8-26.3,17.1-36.5c14.9-12.4,46-20.6,68.6,4.4    c17.7,19.6,22.7,43.6,8.2,60.5s-41.3,1.4-41.3,1.4"/>
		<path class="st14" d="M636.7,244.5c0,0-18,24.8-24,34.3c-5.7,8.9-12.7,15.9-20.8,9.1s-1.7-25.1,1.6-30.7s16.8-29,16.8-29"/>
		<path class="st14" d="M595.3,254c0,0-6.9,4-12.9-3.4c-3.8-4.7-4.2-15.2,8.5-33.3"/>
	</g>
</g>
</svg>