<?xml version="1.0" encoding="UTF-8"?>
<!-- Generator: Adobe Illustrator 26.0.2, SVG Export Plug-In . SVG Version: 6.00 Build 0)  -->
<svg version="1.1" id="Layer_1" xmlns="http://www.w3.org/2000/svg" xmlns:xlink="http://www.w3.org/1999/xlink" x="0px" y="0px" viewBox="0 0 1420.8 787.8" style="enable-background:new 0 0 1420.8 787.8;" xml:space="preserve">
<style type="text/css">
	.st0{fill:#F05A24;}
	.st1{fill:#0E183F;}
	.st2{fill:#0E183F;stroke:#0E183F;stroke-width:2;stroke-linecap:round;stroke-linejoin:round;}
	.st3{fill:#F5A790;stroke:#000000;stroke-width:2;stroke-miterlimit:10;}
	.st4{fill:#F5A790;stroke:#0E183F;stroke-width:2;stroke-linecap:round;stroke-linejoin:round;}
	.st5{fill:none;stroke:#0E183F;stroke-width:2;stroke-miterlimit:10;}
	.st6{fill:none;stroke:#0E183F;stroke-width:2;stroke-linecap:round;stroke-linejoin:round;}
	.st7{fill:#0E183F;stroke:#0E183F;stroke-width:2;stroke-miterlimit:10;}
	.st8{stroke:#000000;stroke-linecap:round;stroke-linejoin:round;}
	.st9{fill:#FFFFFF;}
	.st10{stroke:#000000;stroke-width:0.9999;stroke-linecap:round;stroke-linejoin:round;stroke-miterlimit:3.9998;}
	.st11{fill:none;stroke:#000000;stroke-width:2;stroke-miterlimit:10;}
	.st12{fill:none;stroke:#0043FF;stroke-width:2;stroke-miterlimit:10;stroke-dasharray:11.92,11.92;}
	.st13{fill:#F7E7DE;}
	.st14{fill:#F7E7DE;stroke:#0E183F;stroke-width:2;stroke-linecap:round;stroke-linejoin:round;}
	.st15{clip-path:url(#SVGID_00000167361652754659103050000004171055138903002803_);}
	.st16{fill:#0043FF;}
	.st17{fill:#0E183F;stroke:#0E183F;stroke-width:1;stroke-linecap:round;stroke-linejoin:round;stroke-miterlimit:4.0001;}
	.st18{fill:#0E183F;stroke:#0E183F;stroke-linecap:round;stroke-linejoin:round;}
	.st19{fill:#F5A790;stroke:#0E183F;stroke-width:2;stroke-miterlimit:10;}
	.st20{fill:#2468FF;}
	.st21{fill:none;stroke:#FFFFFF;stroke-width:13;stroke-linecap:round;stroke-linejoin:round;}
</style>
<g id="Layer_2_00000127005246756435549760000001133149405306241471_">
	<g id="Layer_2-2">
		<polygon class="st0" points="749,528 869.4,606.5 783.1,763.4 631.4,584.9   "/>
		<path class="st0" d="M1214.2,480.3c0.5-29-22.6-52.9-51.6-53.4c-0.3,0-0.6,0-0.9,0H951.5c-25.2,0-46.8,17.8-51.5,42.5l-61.2,316.8    H1209L1214.2,480.3z"/>
		<path class="st1" d="M994,297.8l-44.5,71.5c-4.4,7-5.1,15.7-2,23.4l0.9,2.2c5,12.1,18.2,18.6,30.8,15l0,0    c8.3-2.4,14.9-8.7,17.5-17l26.6-84.4L994,297.8z"/>
		<path class="st2" d="M1099.3,304.6l10.7,38.1c3.9,13.8,12,26.1,23.2,35l0,0c17.6,14.1,20.5,39.7,6.4,57.4c-0.8,1-1.7,2-2.7,3l0,0    c-12.2,12.5-30.9,15.9-46.7,8.4l0,0c-22.6-10.7-34.1-36.3-27-60.3l11.3-38.4L1099.3,304.6z"/>
		<path class="st3" d="M1078.5,307l-2.8,56.2c-1.3,25.4-22.9,44.9-48.3,43.6c-1-0.1-2-0.1-2.9-0.2l0,0c-25.2-3-43.3-25.8-40.3-51    c0.1-1.2,0.3-2.4,0.6-3.7l12.2-60.8L1078.5,307z"/>
		<path class="st4" d="M992.8,335.8l-13.8-1.6c-2.6-0.3-4.9,1.6-5.2,4.1l0,0c-0.3,2.6,1.6,4.9,4.2,5.2l13.8,1.6"/>
		<line class="st5" x1="1071.6" y1="328.6" x2="1071.6" y2="328.6"/>
		<circle class="st1" cx="1010.5" cy="335.1" r="3.5"/>
		<circle class="st1" cx="1004.2" cy="332.5" r="3.5"/>
		<path class="st6" d="M1024.4,355.2c0,0-4.2,3.1-13.4,1.3"/>
		<path class="st2" d="M1097,343l2.9-19.4c2.5-17-2.4-34.2-13.5-47.3l0,0c-16.8-19.8-42.7-29.4-68.3-25.4l-7.1,1.1    c-11.1,1.7-20.6,8.9-25.4,19.1l0,0c-4.5,9.7-4.2,20.9,0.9,30.2l0.5,0.9c5.2,9.7,14.8,16.2,25.8,17.5l47.3,5.5L1097,343z"/>
		<path class="st4" d="M1071.6,328.6c6.6-5.8,16.4-5.8,23,0l0.9,0.8c4.7,4.2,6.8,10.6,5.4,16.8l-1.5,6.4c-1,4.2-3.5,7.9-7,10.4    l-2,1.4c-3.4,2.4-7.7,3.5-11.8,3l-9.2-1.1"/>
		<path class="st1" d="M1080.6,342c0.1-1.3,0.9-2.4,2.1-2.9c1.9-0.6,4.1-0.2,5.6,1.1l0.3,0.2c1.6,1.4,2.2,3.5,1.8,5.5l-0.5,2.1    c-0.3,1.4-1.1,2.6-2.3,3.4l-0.7,0.5c-1.1,0.8-2.5,1.2-3.9,1l0,0c-1.7-0.2-3-1.7-2.9-3.4L1080.6,342z"/>
		<path class="st2" d="M1081.6,320.3l-0.9,2.9c-5.7,18.4-32.1,19.6-38.3,1.4l-0.2-0.6C1035.2,302.5,1081.6,320.3,1081.6,320.3z"/>
		<path class="st7" d="M1091.5,262.3l11.7-15.7c3.7-5,9.6-7.7,15.8-7.4l0,0c8.5,0.5,14.9,7.8,14.4,16.3c-0.1,1.9-0.6,3.7-1.3,5.4    l0,0c-2.4,5.2-7.5,8.7-13.2,9l-22.7,1.2c-3,0.1-5.6-2.2-5.7-5.2C1090.4,264.5,1090.8,263.3,1091.5,262.3z"/>
		<path class="st0" d="M1212.8,467.6c0,0,135.5,247.6,90.9,295.2c-63.4,67.7-182.9-25.9-220.4-60.5S1212.8,467.6,1212.8,467.6z"/>
		<path class="st0" d="M909.1,448.3c0,0-155,219-133.2,299.6c17.3,64.1,128.9,25.2,153.4-19.5"/>
		<line class="st5" x1="838.7" y1="786.2" x2="891.8" y2="536.7"/>
		<path class="st8" d="M1064.3,692.8h-82.4c-6.4,0-13.4-5.2-15.7-11.5l-57.9-158.9c-2.3-6.4,1-11.5,7.3-11.5H998    c6.4,0,13.4,5.2,15.7,11.5l57.8,158.9C1074,687.6,1070.7,692.8,1064.3,692.8z"/>
		<path class="st9" d="M953.6,575.1h-1.2c-6.4,0-13.6-5.2-15.9-11.7l-10.3-28.2c-2.3-6.4,1-11.7,7.4-11.7h1.2    c6.4,0,13.6,5.2,15.9,11.7l10.2,28.2C963.4,569.8,960,575.1,953.6,575.1z"/>
		
			<ellipse transform="matrix(0.6406 -0.7678 0.7678 0.6406 -75.5002 914.7014)" class="st10" cx="939.5" cy="538" rx="7.4" ry="10.6"/>
		<path class="st3" d="M1045.4,586.5c0,0-82.1-25.3-90.1-3s20.4,30,46,34.3s2.1-1.8,19.9,41.2c8.8,21.3,28,27,46.1,28.6    s53.8-19.2,44.7-69.2s-56.4-66-70.8-74.2s-32.5-11.5-28.7,6.7S1045.4,586.5,1045.4,586.5z"/>
		<polygon class="st8" points="1018,533.8 1036,583.5 999.1,569.5 992.8,540.5   "/>
		<line class="st11" x1="1090.5" y1="575.1" x2="1205.6" y2="615"/>
		<line class="st6" x1="1" y1="786.8" x2="505.8" y2="786.8"/>
		<line class="st6" x1="499.7" y1="786.8" x2="1356.8" y2="786.8"/>
		<path class="st12" d="M437.7,468.5c26.1,4.9,76,5.7,107.5-48.1c44.2-75.6,57.5-244.9,151.4-288.9s186.4-16.1,153.2,96    S716.2,440.3,655.2,417.7s-48.3-101.3,42.3-118.1c86.7-16.1,137.1-1.2,196,61.4"/>
		<path class="st12" d="M896.9,365c1.3,1.5,2.7,3,4,4.5"/>
		<path class="st13" d="M4.7,268.2c-0.1-93.6,54-178.7,138.7-218.5c5.7-2.7,11.5-5.1,17.4-7.4C188,32,216.9,26.8,246,26.8    c133.3,0,241.3,108,241.3,241.3S379.3,509.5,246,509.5S4.7,401.4,4.7,268.2z"/>
		<path class="st6" d="M160.8,42.4C188,32.1,216.9,26.9,246,26.9c133.3,0,241.3,108,241.3,241.3"/>
		<path class="st14" d="M12.7,206.6c16.7-63.1,58.2-116.7,115-148.8"/>
		<g>
			<g>
				<defs>
					<path id="SVGID_1_" d="M4.7,268.2c-0.1-93.6,54-178.7,138.7-218.5c5.7-2.7,11.5-5.1,17.4-7.4C188,32,216.9,26.8,246,26.8       c133.3,0,241.3,108,241.3,241.3S379.3,509.5,246,509.5S4.7,401.4,4.7,268.2z"/>
				</defs>
				<clipPath id="SVGID_00000068639611555006523870000013941385885357754293_">
					<use xlink:href="#SVGID_1_" style="overflow:visible;"/>
				</clipPath>
				<g style="clip-path:url(#SVGID_00000068639611555006523870000013941385885357754293_);">
					<path class="st16" d="M160.2,293.8h193.5c35.3,0,65.3,25.9,70.3,60.9l43,298H69.8l19.5-292.6       C91.8,322.8,122.8,293.7,160.2,293.8z"/>
					<ellipse class="st17" cx="274.9" cy="171" rx="28.9" ry="28.9"/>
					
						<ellipse transform="matrix(0.3162 -0.9487 0.9487 0.3162 44.3906 336.8138)" class="st17" cx="255.9" cy="137.6" rx="40" ry="40"/>
					<circle class="st18" cx="205.6" cy="186.1" r="28.9"/>
					<path class="st19" d="M202.9,173.9l4.6,57.3c2.1,25.9,24.7,45.2,50.6,43.1c1-0.1,2.1-0.2,3.1-0.3l0,0       c25.7-3.8,43.5-27.6,39.7-53.3c-0.2-1.3-0.4-2.5-0.7-3.8l-14.3-61.7L202.9,173.9z"/>
					<path class="st4" d="M292.5,200.6l14.1-2.1c2.6-0.4,5.1,1.4,5.5,4.1l0,0l0,0c0.4,2.6-1.4,5-4.1,5.4l-14.1,2.1"/>
					<circle class="st1" cx="273.2" cy="200.5" r="3.5"/>
					<circle class="st1" cx="279.5" cy="197.6" r="3.5"/>
					<path class="st6" d="M259.6,221.5c0,0,4.4,3,13.7,0.9"/>
					<path class="st4" d="M210.6,195.7c-6.9-5.8-16.9-5.5-23.5,0.7l-0.9,0.8c-4.7,4.4-6.6,11.1-5,17.3l1.7,6.5       c1.1,4.3,3.8,8,7.5,10.4l2.1,1.3c3.6,2.3,7.9,3.3,12.2,2.7l9.4-1.4"/>
					<path class="st1" d="M201.8,209.7c-0.1-1.4-1-2.5-2.4-2.9c-2-0.5-4.1,0-5.6,1.4l-0.3,0.3c-1.5,1.5-2.2,3.6-1.6,5.7l0.6,2.1       c0.4,1.4,1.2,2.6,2.5,3.4l0.7,0.4c1.2,0.8,2.6,1.1,4,0.9l0,0c1.7-0.3,3-1.8,2.8-3.6L201.8,209.7z"/>
					<path class="st18" d="M202.1,141.1l5.9,64c0.5,5.9,5.8,10.2,11.7,9.7l0,0l0,0c5.7-0.5,10-5.5,9.7-11.2l-3.3-64.3L202.1,141.1z"/>
					<path class="st18" d="M289.1,149.1c0,0-8,23.9-46.9,37.7s-39.1-3.4-39.1-3.4l22.2-27.1L289.1,149.1z"/>
					<circle class="st18" cx="217.2" cy="157.9" r="26.9"/>
				</g>
			</g>
		</g>
		<path class="st4" d="M640.2,594.9c0,0-19.5-17.1-38.9-47.4s-33.8-49.6-24.4-59c11.1-11.1,61.5,43.9,61.5,43.9s-45.8-53.1-44-65.6    c1.3-9.2,12.6-11.9,30.6,6s35.7,32.7,35.7,32.7s-42.1-66.6-24.8-75.7c18.4-9.7,66.4,74,66.4,74s22.8-50.8,38.7-44.1    s-4.2,38.9-0.9,46.3c3.3,7.4,29.8,33.9-8.9,70.8C692.5,613.7,665,613.2,640.2,594.9z"/>
		<path class="st4" d="M627.8,545c0,0,25.4-32.5,47.2-48"/>
		<path class="st16" d="M440.8,6.5L440.8,6.5c4.9,5.6,12.5,7.9,19.7,5.8l0,0c10.1-2.9,20.6,2.8,23.6,12.9c0.2,0.9,0.4,1.7,0.6,2.6    l0,0c1.1,7.3,6.3,13.4,13.4,15.5l0,0c10.1,3,15.8,13.5,12.9,23.6c-0.3,0.9-0.6,1.7-0.9,2.5l0,0c-3.1,6.7-1.9,14.7,2.9,20.3l0,0    c6.9,7.9,6,19.9-1.9,26.8c-0.7,0.6-1.4,1.1-2.1,1.6l0,0c-6.2,4-9.6,11.3-8.5,18.6l0,0c1.5,10.4-5.7,20-16.1,21.5    c-0.9,0.1-1.8,0.2-2.7,0.2l0,0c-7.4,0-14.1,4.3-17.2,11.1l0,0c-4.4,9.5-15.7,13.7-25.2,9.4c-0.8-0.4-1.6-0.8-2.3-1.3l0,0    c-6.2-4-14.2-4-20.5,0l0,0c-8.8,5.7-20.6,3.1-26.3-5.7c-0.5-0.7-0.9-1.5-1.3-2.3l0,0c-3.1-6.7-9.8-11.1-17.2-11.1l0,0    c-10.5,0-19-8.5-19-19c0-0.9,0.1-1.8,0.2-2.6l0,0c1-7.3-2.3-14.6-8.5-18.6l0,0c-8.8-5.7-11.4-17.4-5.7-26.3c0.5-0.7,1-1.5,1.6-2.1    l0,0c4.9-5.6,6-13.5,2.9-20.3l0,0c-4.4-9.5-0.1-20.8,9.4-25.2c0.8-0.4,1.6-0.7,2.5-0.9l0,0c7.1-2.1,12.4-8.1,13.4-15.5l0,0    c1.5-10.4,11.1-17.6,21.5-16.1c0.9,0.1,1.8,0.3,2.6,0.6l0,0c7.1,2.1,14.8-0.2,19.7-5.8l0,0c6.9-7.9,18.9-8.8,26.8-1.9    C439.6,5.2,440.2,5.9,440.8,6.5z"/>
		<circle class="st20" cx="426.5" cy="90.3" r="67.9"/>
		<polyline class="st21" points="387.4,100.1 406.9,119.6 462.9,63.6   "/>
	</g>
</g>
<g>
	<path class="st16" d="M436.2,451.1l83.4-79.5c6.6-6.3,17.1-6.1,23.5,0.6l25.1,26.4c6.3,6.6,6.1,17.1-0.6,23.5l-58.3,55.6l-0.6,24.3   l-11.9-12.4l-12.6,12c-6.6,6.3-17.1,6.1-23.5-0.6l-25.1-26.4C429.3,467.9,429.6,457.4,436.2,451.1z"/>
	<g>
		<circle class="st9" cx="528.7" cy="411.6" r="7.6"/>
		<circle class="st9" cx="502.2" cy="436.8" r="7.6"/>
		<circle class="st9" cx="475.7" cy="462.1" r="7.6"/>
	</g>
</g>
</svg>