<svg xmlns="http://www.w3.org/2000/svg" xmlns:xlink="http://www.w3.org/1999/xlink" viewBox="0 0 1260.12 822.32"><defs><style>.cls-1,.cls-15,.cls-7{fill:none;}.cls-2,.cls-3,.cls-8{fill:#0e183f;}.cls-10,.cls-15,.cls-3,.cls-5,.cls-6,.cls-7,.cls-8,.cls-9{stroke:#0e183f;}.cls-10,.cls-12,.cls-14,.cls-15,.cls-3,.cls-8{stroke-linecap:round;stroke-linejoin:round;}.cls-10,.cls-11,.cls-14,.cls-15,.cls-3,.cls-5,.cls-6,.cls-7,.cls-9{stroke-width:2px;}.cls-4{fill:#0043ff;}.cls-11,.cls-5,.cls-6,.cls-7,.cls-9{stroke-miterlimit:10;}.cls-5{fill:url(#New_Pattern_Swatch_2);}.cls-6{fill:url(#New_Pattern_Swatch_2-3);}.cls-10,.cls-11,.cls-14,.cls-9{fill:#f5a790;}.cls-11,.cls-12,.cls-14{stroke:#000;}.cls-13{fill:#fff;}.cls-16{fill:#a6c2ff;}.cls-17{fill:#ff9676;}</style><pattern id="New_Pattern_Swatch_2" data-name="New Pattern Swatch 2" width="22" height="22" patternTransform="matrix(-1.04, 0, 0, 1.04, 274.76, 10.67)" patternUnits="userSpaceOnUse" viewBox="0 0 22 22"><rect class="cls-1" width="22" height="22"/><circle class="cls-2" cx="16.5" cy="22" r="2.84"/><circle class="cls-2" cx="5.5" cy="22" r="2.84"/><circle class="cls-2" cx="22" cy="11" r="2.84"/><circle class="cls-2" cx="11" cy="11" r="2.84"/><circle class="cls-2" cy="11" r="2.84"/><circle class="cls-2" cx="16.5" r="2.84"/><circle class="cls-2" cx="5.5" r="2.84"/></pattern><pattern id="New_Pattern_Swatch_2-3" data-name="New Pattern Swatch 2" width="22" height="22" patternTransform="matrix(-1.3, 0, 0, 1.3, 350.53, -11.17)" patternUnits="userSpaceOnUse" viewBox="0 0 22 22"><rect class="cls-1" width="22" height="22"/><circle class="cls-2" cx="16.5" cy="22" r="2.84"/><circle class="cls-2" cx="5.5" cy="22" r="2.84"/><circle class="cls-2" cx="22" cy="11" r="2.84"/><circle class="cls-2" cx="11" cy="11" r="2.84"/><circle class="cls-2" cy="11" r="2.84"/><circle class="cls-2" cx="16.5" r="2.84"/><circle class="cls-2" cx="5.5" r="2.84"/></pattern></defs><g id="Layer_2" data-name="Layer 2"><g id="Layer_2-2" data-name="Layer 2"><path class="cls-3" d="M264.21,786.76v34.56h24.73l6.46-11.8,8.43,11.8H484l-.34-.49a77.93,77.93,0,0,0-56.93-33.15l-10.17-.92Z"/><path class="cls-3" d="M1,787v34.06a.25.25,0,0,0,.25.25H25.58a.25.25,0,0,0,.22-.13L32,809.87a.25.25,0,0,1,.42,0l8.13,11.37a.25.25,0,0,0,.2.1H220.26a.25.25,0,0,0,.2-.39h0a78.15,78.15,0,0,0-57.11-33.26l-10-.91H1.25A.25.25,0,0,0,1,787Z"/><path class="cls-4" d="M308.4,163.82a36,36,0,0,0-35.35-29.18H155a36,36,0,0,0-35.35,29.18L77.66,381H350.37Z"/><path class="cls-5" d="M1,785,77.66,381H350.37l73.5,404.27h-162l-46.57-213.9L168.92,785.09a.27.27,0,0,1-.25.22H1.29A.26.26,0,0,1,1,785Z"/><line class="cls-6" x1="232.18" y1="495.01" x2="213.04" y2="581.67"/><line class="cls-7" x1="350.37" y1="381.04" x2="313.94" y2="209.96"/><path class="cls-4" d="M123,155.2S30,325,60.6,357.64c43.46,46.42,125.44-17.78,151.12-41.48S123,155.2,123,155.2Z"/><path class="cls-7" d="M211.72,316.16s-41.16,57.71-119.35,57.5"/><path class="cls-4" d="M305.37,155.2S398.28,325,367.72,357.64c-43.46,46.42-125.43-17.78-151.11-41.48S305.37,155.2,305.37,155.2Z"/><path class="cls-7" d="M240.13,327.49s33.05,46.34,95.82,46.17"/><circle class="cls-8" cx="238.28" cy="49.95" r="18.98"/><circle class="cls-8" cx="228.15" cy="26.78" r="26.28"/><circle class="cls-8" cx="191.92" cy="54.95" r="18.98"/><path class="cls-9" d="M191,46.76,190,84.5a30.85,30.85,0,0,0,32,31.66h0a30.85,30.85,0,0,0,29.44-34.53l-5-41.28Z"/><path class="cls-10" d="M247.68,70.46,257,70.1a3.18,3.18,0,0,1,3.28,3.05h0a3.16,3.16,0,0,1-3,3.28l-9.32.36"/><circle class="cls-2" cx="235.09" cy="69.05" r="2.32"/><circle class="cls-2" cx="239.38" cy="67.62" r="2.32"/><path class="cls-10" d="M194.52,61.53a11.59,11.59,0,0,0-15.36-1.21l-.61.46a11.6,11.6,0,0,0-4.48,11l.65,4.33a11.54,11.54,0,0,0,4.14,7.29l1.26,1A11.57,11.57,0,0,0,187.88,87l6.24-.24"/><path class="cls-2" d="M187.81,70.07A2.16,2.16,0,0,0,186.48,68a3.85,3.85,0,0,0-3.72.51l-.2.15a3.84,3.84,0,0,0-1.48,3.62l.21,1.43a3.82,3.82,0,0,0,1.37,2.4l.42.34a3.84,3.84,0,0,0,2.56.86h0a2.19,2.19,0,0,0,2.09-2.14Z"/><path class="cls-8" d="M192.85,25.3l-.63,42.16a7,7,0,0,0,6.94,7.14h0A7,7,0,0,0,206.29,68l2.39-42.2Z"/><path class="cls-8" d="M249.05,36.64s-6.9,15-33.23,21.29-25.26-5-25.26-5L207,36.83Z"/><circle class="cls-8" cx="201.5" cy="37.3" r="17.63"/><path class="cls-11" d="M259.15,271.17s-28.29,20.88-17.85,46.12c5.19,12.53,15.33,12.86,27.7,12.09,10.64-.66,34.53-10.07,29.22-39.46s-33.13-38.76-41.57-43.6-19.07-6.72-16.88,3.91S259.15,271.17,259.15,271.17Z"/><rect class="cls-12" x="169.56" y="204.24" width="75.79" height="130.78" rx="7.65"/><rect class="cls-13" x="179.08" y="213.4" width="17.63" height="37.01" rx="7.73"/><circle class="cls-12" cx="187.89" cy="223.8" r="6.35"/><polygon class="cls-12" points="245.46 272.02 217.1 264.33 217.1 231.91 245.46 231.91 245.46 272.02"/><path class="cls-11" d="M162.66,289.59s28.29,20.88,17.85,46.12c-5.19,12.53-15.34,12.86-27.7,12.09-10.65-.65-34.54-10.07-29.22-39.45s33.13-38.76,41.57-43.61S184.23,258,182,268.65,162.66,289.59,162.66,289.59Z"/><path class="cls-14" d="M175,327.48a59.83,59.83,0,0,0,18-4.42,10,10,0,0,1,8,18.37c-15.65,6.78-31.61,6.58-37.2,6.25"/><path class="cls-14" d="M169.56,328.42c.27,0,2.56.26,6.19.26,7.39,0,20.33-1,33-6.54a10,10,0,0,0-8-18.32c-13.88,6.1-28.8,4.73-29.09,4.7"/><path class="cls-14" d="M168.17,311.39c8.13-.78,22.27-3.2,35.66-10.68a11.06,11.06,0,0,0-10.78-19.31c-14.63,8.17-31.18,8.24-31.51,8.24"/><path class="cls-14" d="M246.77,309.06a60.13,60.13,0,0,1-18-4.42,10,10,0,0,0-8,18.36c15.65,6.79,31.61,6.59,37.2,6.25"/><path class="cls-14" d="M252.24,310c-.26,0-2.55.26-6.18.26-7.39,0-20.33-1-33-6.54a10,10,0,1,1,8-18.32c13.87,6.09,28.79,4.73,29.08,4.7"/><path class="cls-14" d="M253.63,293c-8.13-.78-22.26-3.2-35.66-10.68A11.06,11.06,0,1,1,228.76,263c14.62,8.17,31.18,8.24,31.5,8.24"/><polygon class="cls-12" points="169.42 286.03 197.77 278.34 197.77 245.92 169.42 245.92 169.42 286.03"/><circle class="cls-15" cx="227.11" cy="88.51" r="4.17"/><path class="cls-4" d="M923.56,232.24l121.14-29.76a18,18,0,0,1,21.74,13.16l9.42,38.33a18,18,0,0,1-13.16,21.74l-84.76,20.82-13.65,22.53L959.85,301l-18.3,4.49a18,18,0,0,1-21.74-13.16L910.39,254A18,18,0,0,1,923.56,232.24Z"/><circle class="cls-13" cx="1031.74" cy="244.89" r="8.26"/><circle class="cls-13" cx="993.22" cy="254.35" r="8.26"/><circle class="cls-13" cx="954.7" cy="263.82" r="8.26"/><path class="cls-4" d="M964.47,214.75l-22.16.36-22.16.28-44.31.51-88.63.66,1.28-3.09L805,229.7q8.25,8.1,16.44,16.28l3.58,3.58h-5.07l-27.69.06-27.69-.07c-9.23,0-18.46-.1-27.69-.17l-13.84-.1-13.85-.2,1.16-2.78,24.6,25.33,1.87,1.92-2.66,0L647,273l-87.12-.61,87.12-.62,87.13-.5-.79,1.91L708,248.62l-2.8-2.73,3.95,0,13.85-.2,13.84-.11c9.23-.06,18.46-.16,27.69-.16l27.69-.07,27.69.06L818.43,249q-8.16-8.19-16.27-16.43L785.93,216l-3.08-3.12,4.36,0,88.63.67,44.31.51,22.16.27Z"/><path class="cls-4" d="M918,315.52l-120,1.8a1.12,1.12,0,0,1-1-1.55h0a1.12,1.12,0,0,1,1.81-.37l15.3,15.07q8.25,8.1,16.44,16.27l1.67,1.68a1.12,1.12,0,0,1-.78,1.91h-2.38l-114.71-3.67,113-.52a1.11,1.11,0,0,1,1,1.54l-.2.49a1.13,1.13,0,0,1-1.83.36q-7.57-7.61-15.09-15.25L795.1,316.8l-1.18-1.2a1.12,1.12,0,0,1,.8-1.9h1.66Z"/><path class="cls-4" d="M1044.89,190.37q-65.1,2.06-130.24,0,65.1-2.07,130.24,0Z"/><path class="cls-4" d="M1019.82,332q-65.1,2.06-130.25,0,65.11-2.07,130.25,0Z"/><path class="cls-4" d="M708.3,310.26c-76.54,1.34-153.94,1.35-230.48,0,76.54-1.34,153.94-1.33,230.48,0Z"/><circle class="cls-16" cx="1031.74" cy="355.42" r="4.85"/><circle class="cls-16" cx="693.23" cy="369.43" r="9.16"/><circle class="cls-17" cx="822.13" cy="291.06" r="3.24"/><circle class="cls-17" cx="570.49" cy="250.02" r="7.58"/><circle class="cls-17" cx="889.57" cy="176.31" r="8.24"/><path class="cls-4" d="M1112.44,410.44l124.16-12.05a18,18,0,0,1,19.63,16.15l3.81,39.28a18,18,0,0,1-16.16,19.63L1157,481.87l-16.74,20.34-1.79-18.54-18.76,1.82a18,18,0,0,1-19.62-16.15l-3.81-39.28A18,18,0,0,1,1112.44,410.44Z"/><circle class="cls-13" cx="1217.68" cy="438.49" r="8.26"/><circle class="cls-13" cx="1178.2" cy="442.32" r="8.26"/><circle class="cls-13" cx="1138.72" cy="446.15" r="8.26"/><path class="cls-4" d="M1101.76,503.71l-120,1.8a1.12,1.12,0,0,1-1-1.55h0a1.12,1.12,0,0,1,1.81-.37l15.3,15.07q8.26,8.1,16.44,16.27l1.68,1.68a1.12,1.12,0,0,1-.79,1.91h-2.38l-114.7-3.67,113-.53a1.12,1.12,0,0,1,1,1.55l-.2.49a1.13,1.13,0,0,1-1.83.36q-7.57-7.61-15.09-15.25L978.81,505l-1.18-1.2a1.12,1.12,0,0,1,.81-1.9h1.65Z"/><path class="cls-4" d="M1079.71,473.66c-76.55,1.34-153.94,1.35-230.49,0,76.55-1.35,153.94-1.34,230.49,0Z"/><circle class="cls-16" cx="1215.45" cy="543.61" r="4.85"/><circle class="cls-16" cx="876.94" cy="557.62" r="9.16"/><circle class="cls-17" cx="1005.84" cy="479.25" r="3.24"/><circle class="cls-17" cx="754.2" cy="438.21" r="7.58"/><circle class="cls-17" cx="1073.29" cy="364.5" r="8.24"/></g></g></svg>