<svg xmlns="http://www.w3.org/2000/svg" width="1980" height="266.888" viewBox="0 0 1980 266.888">
  <path id="Exclusion_2" data-name="Exclusion 2" d="M1980,266.888H0V68.16c36.788,7.33,74.671,14.346,112.6,20.847,38.118,6.531,77.248,12.711,116.3,18.366,39.332,5.692,79.627,11.008,119.764,15.795,40.438,4.822,81.812,9.238,122.974,13.131,41.484,3.92,83.852,7.411,125.934,10.374,42.441,2.987,85.725,5.516,128.652,7.522,43.335,2.026,87.449,3.568,131.118,4.582,44.084,1.027,88.945,1.548,133.338,1.548,44.3,0,89.093-.519,133.132-1.542,43.647-1.017,87.694-2.553,130.922-4.571,42.86-2,86.082-4.521,128.462-7.5,42.011-2.951,84.323-6.434,125.759-10.34,41.119-3.883,82.438-8.287,122.805-13.1,40.1-4.771,80.339-10.071,119.609-15.747,39.034-5.643,78.115-11.8,116.159-18.312,37.886-6.483,75.726-13.476,112.469-20.788V266.888Z" fill="#0e7429"/>
</svg>
