<svg xmlns="http://www.w3.org/2000/svg" width="37" height="37" viewBox="0 0 37 37">
  <g id="Group_4740" data-name="Group 4740" transform="translate(-874 -8423)">
    <circle id="Ellipse_164" data-name="Ellipse 164" cx="18.5" cy="18.5" r="18.5" transform="translate(874 8423)" fill="#fff"/>
    <path id="iconmonstr-instagram-11" d="M8.32,1.5c2.221,0,2.485.008,3.363.049,2.255.1,3.308,1.172,3.41,3.41.04.877.048,1.141.048,3.362s-.008,2.485-.048,3.362c-.1,2.236-1.154,3.308-3.41,3.41-.878.04-1.14.049-3.363.049s-2.485-.008-3.362-.049c-2.26-.1-3.308-1.178-3.41-3.411C1.507,10.8,1.5,10.542,1.5,8.32s.009-2.484.049-3.362c.1-2.237,1.154-3.308,3.41-3.41C5.836,1.508,6.1,1.5,8.32,1.5Zm0-1.5C6.06,0,5.777.01,4.89.05,1.868.189.189,1.865.051,4.889.01,5.777,0,6.06,0,8.32s.01,2.543.05,3.431c.139,3.021,1.815,4.7,4.839,4.839.888.04,1.171.05,3.431.05s2.543-.01,3.431-.05c3.019-.139,4.7-1.815,4.839-4.839.041-.887.051-1.171.051-3.431s-.01-2.542-.05-3.43c-.136-3.019-1.814-4.7-4.839-4.839C10.863.01,10.579,0,8.32,0Zm0,4.048A4.273,4.273,0,1,0,12.592,8.32,4.272,4.272,0,0,0,8.32,4.048Zm0,7.046A2.773,2.773,0,1,1,11.093,8.32,2.773,2.773,0,0,1,8.32,11.093Zm4.441-8.212a1,1,0,1,0,1,1A1,1,0,0,0,12.761,2.881Z" transform="translate(884.18 8433.18)" fill="#0e183f"/>
  </g>
</svg>
