<svg xmlns="http://www.w3.org/2000/svg" width="37" height="37" viewBox="0 0 37 37">
  <g id="Group_4739" data-name="Group 4739" transform="translate(-874 -8423)">
    <circle id="Ellipse_164" data-name="Ellipse 164" cx="18.5" cy="18.5" r="18.5" transform="translate(874 8423)" fill="#fff"/>
    <path id="linkedin-in" d="M3.449,15.4H.258V5.121H3.449ZM1.852,3.724A1.862,1.862,0,1,1,3.7,1.862,1.862,1.862,0,0,1,1.852,3.724ZM14.224,15.4h-2.19v-5c0-1.192-.024-2.72-1.658-2.72-1.66.006-1.913,1.3-1.913,2.637V15.4H5.276V5.121h3.06v1.4h.048A3.352,3.352,0,0,1,11.4,4.858c3.228,0,3.822,2.126,3.822,4.888v5.643Z" transform="translate(885.473 8432.717)" fill="#0e183f"/>
  </g>
</svg>
