<svg id="telgorithm-text-mark-white" xmlns="http://www.w3.org/2000/svg" width="182" height="37.413" viewBox="0 0 182 37.413">
  <path id="Path_45" data-name="Path 45" d="M11.9,40.976a2.434,2.434,0,0,1-2.708-2.43v-10.2h4.759V26.623H9.189V20.7L2.43,23.434v2.278L0,27.864l2.936,1.62-.506,9.29c-.152,3.088,2,5.063,5.417,5.063a9.146,9.146,0,0,0,7.391-4.582A4.763,4.763,0,0,1,11.9,40.976Z" transform="translate(0 -15.46)" fill="#0e183f"/>
  <path id="Path_46" data-name="Path 46" d="M58.934,40.882c1.088,0,1.721,1.519,1.721,3.9,0,.962-.228,1.747-1.24,1.747H56.707C56.808,43.059,57.694,40.882,58.934,40.882Zm3.038,12.986c-3.189,0-5.265-2.835-5.265-6.657v-.1h9.518v-.354c0-3.822-3.012-6.455-7.29-6.455-5.214,0-8.834,4.05-8.834,9.72a8.092,8.092,0,0,0,8.48,8.48c4.582,0,7.822-3.519,8.277-9.037C66.022,52.374,64.5,53.868,61.972,53.868Z" transform="translate(-37.418 -30.099)" fill="#0e183f"/>
  <path id="Path_47" data-name="Path 47" d="M123.73,33.537V10.3L113.2,13.616l3.594,1.671V33.537l-2.126,2.152h11.188Z" transform="translate(-84.546 -7.693)" fill="#0e183f"/>
  <path id="Path_48" data-name="Path 48" d="M171.721,60.906c1.418,0,1.873.2,1.873.785,0,1.316-2.86,2.607-6.784,2.658-3.721.076-6.1-.861-6.1-2.329,0-.683.582-1.114,1.721-1.114Zm-5.7-8.227c-1.215,0-1.747-1.949-1.747-5.873,0-4.177.557-6,1.747-6s1.671,1.974,1.671,6C167.7,50.933,167.139,52.679,166.025,52.679Zm9.821-11.416H171.8c-1.721,0-3.265-1.063-5.771-1.063-4.506,0-7.923,2.81-7.923,6.581a6.076,6.076,0,0,0,3.164,5.24c-2.531,1.949-3.924,3.417-3.924,5.265a3.452,3.452,0,0,0,2.734,3.265v.3c-2.076.43-4.177,1.443-4.177,3.012,0,2,3.038,3.569,7.088,3.569,6,0,12.758-4.43,12.758-9.062,0-2.253-1.747-3.367-4.253-3.367h-9.34c-.861,0-1.392-.354-1.392-1.013a2.523,2.523,0,0,1,.987-1.671,9.157,9.157,0,0,0,4.253.962c4.506,0,7.872-2.759,7.872-6.455a6.155,6.155,0,0,0-1.342-3.822h3.291V41.263Z" transform="translate(-116.437 -30.024)" fill="#0e183f"/>
  <path id="Path_49" data-name="Path 49" d="M238.721,57.843c-2.05,0-2.911-2.835-2.911-8.606,0-5.923.962-8.48,2.911-8.48,1.974,0,2.835,2.81,2.835,8.48C241.556,55.287,240.62,57.843,238.721,57.843Zm0,.557a9.45,9.45,0,0,0,9.745-9.189c0-4.936-4.278-9.011-9.745-9.011-5.417,0-9.821,4.05-9.821,9.011C228.874,54.249,233.3,58.4,238.721,58.4Z" transform="translate(-170.958 -30.024)" fill="#0e183f"/>
  <path id="Path_50" data-name="Path 50" d="M315.468,40.2c-1.873,0-3.7,1.443-5.088,3.594V40.2l-8.48,3.265,1.772,1.164V56.375l-1.316,1.645h9.594l-1.595-1.645V44.731c.456-.835,1.088-1.493,1.62-1.493,1.114,0,1.24,3.493,4.05,3.493,1.595,0,2.658-1.291,2.658-3.164A3.138,3.138,0,0,0,315.468,40.2Z" transform="translate(-225.48 -30.024)" fill="#0e183f"/>
  <path id="Path_51" data-name="Path 51" d="M372.68,34.044V17.869l-8.48,3.265,1.772,1.164V34.044l-1.316,1.645H374Zm0-23.744h-6.733v6.176h6.733Z" transform="translate(-272.01 -7.693)" fill="#0e183f"/>
  <path id="Path_52" data-name="Path 52" d="M409.572,40.976a2.434,2.434,0,0,1-2.708-2.43v-10.2h4.759V26.623h-4.734V20.7l-6.759,2.734v2.278l-2.43,2.152,2.936,1.62-.506,9.29c-.177,3.088,1.974,5.088,5.417,5.088a9.146,9.146,0,0,0,7.391-4.582A4.878,4.878,0,0,1,409.572,40.976Z" transform="translate(-297.03 -15.46)" fill="#0e183f"/>
  <path id="Path_53" data-name="Path 53" d="M467.415,26.351V15.188a4.669,4.669,0,0,0-4.759-5.012c-.962,0-3.341,1.24-6.176,3.265V0L448,3.265l1.772,1.316V26.351L448.456,28h9.34l-1.316-1.645V14a5.623,5.623,0,0,1,2.481-.835c1.013,0,1.747.962,1.747,2.3V26.3l-1.443,1.645h9.467Z" transform="translate(-334.598)" fill="#0e183f"/>
  <path id="Path_54" data-name="Path 54" d="M555.391,56.375V45.212a4.669,4.669,0,0,0-4.759-5.012c-.962,0-3.291,1.215-6.075,3.189a4.525,4.525,0,0,0-4.48-3.189c-.911,0-3.139,1.164-5.8,3.012V40.2l-8.48,3.265,1.772,1.316V56.35l-1.316,1.645h9.467L534.28,56.35V43.794a5.633,5.633,0,0,1,2.1-.582c1.012,0,1.747.962,1.747,2.278V56.375l-1.443,1.645h9.467l-1.316-1.645V45.212a5.881,5.881,0,0,0-.127-1.342,5.334,5.334,0,0,1,2.253-.658c1.012,0,1.747.962,1.747,2.278V56.375l-1.443,1.645h9.467Z" transform="translate(-392.705 -30.024)" fill="#0e183f"/>
  <rect id="Rectangle_22099" data-name="Rectangle 22099" width="15.238" height="3.038" transform="translate(166.762 24.959)" fill="#0e183f"/>
</svg>
