<svg id="telgorithm-text-mark-white" xmlns="http://www.w3.org/2000/svg" width="199.922" height="41.097" viewBox="0 0 199.922 41.097">
  <path id="Path_45" data-name="Path 45" d="M13.069,42.972A2.674,2.674,0,0,1,10.093,40.3V29.1h5.227V27.206H10.093V20.7l-7.424,3v2.5L0,28.569l3.225,1.78-.556,10.2c-.167,3.392,2.2,5.561,5.95,5.561a10.046,10.046,0,0,0,8.119-5.033A5.232,5.232,0,0,1,13.069,42.972Z" transform="translate(0 -14.944)" fill="#000"/>
  <path id="Path_46" data-name="Path 46" d="M59.8,40.94c1.2,0,1.891,1.668,1.891,4.282,0,1.057-.25,1.919-1.362,1.919H57.357C57.468,43.331,58.442,40.94,59.8,40.94ZM63.141,55.2c-3.5,0-5.784-3.114-5.784-7.313V47.78H67.812V47.39c0-4.2-3.309-7.09-8.008-7.09-5.728,0-9.7,4.449-9.7,10.677a8.889,8.889,0,0,0,9.315,9.315c5.033,0,8.592-3.865,9.092-9.927C67.59,53.563,65.921,55.2,63.141,55.2Z" transform="translate(-36.169 -29.094)" fill="#000"/>
  <path id="Path_47" data-name="Path 47" d="M124.767,35.825V10.3L113.2,13.943l3.948,1.835V35.825l-2.336,2.363H127.1Z" transform="translate(-81.724 -7.436)" fill="#000"/>
  <path id="Path_48" data-name="Path 48" d="M173.278,62.945c1.557,0,2.058.222,2.058.862,0,1.446-3.142,2.864-7.452,2.92-4.087.083-6.7-.945-6.7-2.558,0-.751.64-1.223,1.891-1.223Zm-6.256-9.037c-1.335,0-1.919-2.141-1.919-6.451,0-4.588.612-6.59,1.919-6.59s1.835,2.169,1.835,6.59C168.857,51.99,168.246,53.908,167.022,53.908Zm10.789-12.54h-4.449c-1.891,0-3.587-1.168-6.34-1.168-4.949,0-8.7,3.086-8.7,7.229a6.675,6.675,0,0,0,3.476,5.756c-2.781,2.141-4.31,3.754-4.31,5.784,0,1.7,1.112,2.975,3,3.587v.334c-2.28.473-4.588,1.585-4.588,3.309,0,2.2,3.337,3.921,7.786,3.921,6.59,0,14.014-4.866,14.014-9.954,0-2.475-1.919-3.7-4.671-3.7h-10.26c-.945,0-1.529-.389-1.529-1.112a2.772,2.772,0,0,1,1.084-1.835,10.059,10.059,0,0,0,4.671,1.057c4.949,0,8.648-3.031,8.648-7.09a6.761,6.761,0,0,0-1.474-4.2h3.615V41.368Z" transform="translate(-112.551 -29.022)" fill="#000"/>
  <path id="Path_49" data-name="Path 49" d="M239.688,59.58c-2.252,0-3.2-3.114-3.2-9.454,0-6.507,1.057-9.315,3.2-9.315,2.169,0,3.114,3.086,3.114,9.315C242.8,56.772,241.774,59.58,239.688,59.58Zm0,.612c6.006,0,10.705-4.56,10.705-10.093,0-5.422-4.7-9.9-10.705-9.9-5.95,0-10.789,4.449-10.789,9.9C228.872,55.632,233.738,60.192,239.688,60.192Z" transform="translate(-165.253 -29.022)" fill="#000"/>
  <path id="Path_50" data-name="Path 50" d="M316.8,40.2c-2.058,0-4.06,1.585-5.589,3.948V40.2L301.9,43.787l1.946,1.279v12.9L302.4,59.775h10.538l-1.752-1.807V45.177c.5-.918,1.2-1.641,1.78-1.641,1.223,0,1.362,3.837,4.449,3.837,1.752,0,2.92-1.418,2.92-3.476A3.447,3.447,0,0,0,316.8,40.2Z" transform="translate(-217.955 -29.022)" fill="#000"/>
  <path id="Path_51" data-name="Path 51" d="M373.515,36.382V18.614L364.2,22.2l1.946,1.279v12.9L364.7,38.189h10.26Zm0-26.082h-7.4v6.785h7.4Z" transform="translate(-262.932 -7.436)" fill="#000"/>
  <path id="Path_52" data-name="Path 52" d="M410.741,42.972a2.674,2.674,0,0,1-2.975-2.669V29.1h5.227V27.206h-5.2V20.7l-7.424,3v2.5L397.7,28.569l3.225,1.78-.556,10.2c-.195,3.392,2.169,5.589,5.95,5.589a10.046,10.046,0,0,0,8.119-5.033A5.358,5.358,0,0,1,410.741,42.972Z" transform="translate(-287.117 -14.944)" fill="#000"/>
  <path id="Path_53" data-name="Path 53" d="M469.327,28.946V16.683c0-3.253-2.141-5.505-5.227-5.505-1.057,0-3.67,1.362-6.785,3.587V0L448,3.587l1.946,1.446V28.946L448.5,30.753h10.26l-1.446-1.807V15.376a6.176,6.176,0,0,1,2.725-.918c1.112,0,1.919,1.057,1.919,2.53v11.9L460.374,30.7h10.4Z" transform="translate(-323.431)" fill="#000"/>
  <path id="Path_54" data-name="Path 54" d="M558.3,57.968V45.706c0-3.253-2.141-5.506-5.227-5.506-1.057,0-3.615,1.335-6.673,3.5a4.97,4.97,0,0,0-4.922-3.5c-1,0-3.448,1.279-6.367,3.309V40.2L525.8,43.787l1.946,1.446V57.94L526.3,59.747h10.4l-1.585-1.807V44.148a6.188,6.188,0,0,1,2.308-.64c1.112,0,1.919,1.057,1.919,2.5V57.968l-1.585,1.807h10.4l-1.446-1.807V45.706a6.459,6.459,0,0,0-.139-1.474,5.859,5.859,0,0,1,2.475-.723c1.112,0,1.919,1.057,1.919,2.5V57.968l-1.585,1.807h10.4Z" transform="translate(-379.599 -29.022)" fill="#000"/>
  <rect id="Rectangle_22099" data-name="Rectangle 22099" width="16.739" height="3.337" transform="translate(183.183 27.416)" fill="#000"/>
</svg>
