<svg xmlns="http://www.w3.org/2000/svg" width="1986.086" height="266.888" viewBox="0 0 1986.086 266.888">
  <path id="Exclusion_3" data-name="Exclusion 3" d="M1986.086,266.888H0V68.16c36.9,7.33,74.9,14.346,112.947,20.847,38.235,6.531,77.486,12.711,116.661,18.366,39.453,5.692,79.872,11.008,120.132,15.795C390.3,127.99,431.8,132.406,473.092,136.3c41.611,3.92,84.11,7.411,126.321,10.374,42.571,2.987,85.988,5.516,129.048,7.522,43.468,2.026,87.718,3.568,131.521,4.582,44.22,1.027,89.219,1.548,133.748,1.548,44.436,0,89.366-.519,133.541-1.542,43.781-1.017,87.964-2.553,131.324-4.571,42.992-2,86.346-4.521,128.857-7.5,42.14-2.951,84.582-6.434,126.146-10.34,41.245-3.883,82.691-8.287,123.183-13.1,40.22-4.771,80.586-10.071,119.976-15.747,39.154-5.643,78.355-11.8,116.516-18.312,38-6.483,75.959-13.476,112.815-20.788V266.888Z" fill="#faf5f2"/>
</svg>
