<svg xmlns="http://www.w3.org/2000/svg" width="2085.471" height="644.841" viewBox="0 0 2085.471 644.841">
  <path id="Union_23" data-name="Union 23" d="M-20100-13360.763v-221.246h2013v221.246Zm-72.471-377.95v-198.728c37.17,7.33,75.449,14.347,113.768,20.848,38.516,6.53,78.055,12.707,117.514,18.362,39.742,5.7,80.455,11.011,121.006,15.795,40.861,4.825,82.664,9.239,124.252,13.133,41.914,3.924,84.723,7.411,127.24,10.373,42.885,2.987,86.615,5.519,129.986,7.523,43.787,2.024,88.359,3.569,132.484,4.581,44.541,1.028,89.867,1.55,134.717,1.55,44.764,0,90.018-.521,134.514-1.544,44.105-1.018,88.605-2.552,132.281-4.567,43.307-2,86.98-4.525,129.8-7.5,42.445-2.952,85.193-6.435,127.063-10.338,41.543-3.884,83.295-8.288,124.078-13.1,40.518-4.773,81.176-10.069,120.852-15.75,39.441-5.64,78.926-11.8,117.365-18.312,38.279-6.479,76.512-13.477,113.637-20.787v198.46Z" transform="translate(20172.471 14005.604)" fill="#fd8d94"/>
</svg>
