<svg xmlns="http://www.w3.org/2000/svg" width="62.983" height="96.068" viewBox="0 0 62.983 96.068">
  <g id="Group_4954" data-name="Group 4954" transform="translate(-903.743 -7636.003)">
    <path id="Path_1991" data-name="Path 1991" d="M1749,361.586a9.536,9.536,0,1,1,9.535,9.536,9.535,9.535,0,0,1-9.535-9.536" transform="translate(-842.771 7283.953)" fill="#ff9676"/>
    <path id="Path_1992" data-name="Path 1992" d="M1789.329,397.917l7.648,8.656,10.281,5.264-.713,11.529,3.547,10.993-8.655,7.648-5.265,10.28-11.529-.712-10.992,3.546L1766,446.466l-10.28-5.265.712-11.528-3.547-10.992,8.655-7.648,5.266-10.281,11.528.712Z" transform="translate(-843.365 7276.951)" fill="#f05a24"/>
    <path id="Path_1993" data-name="Path 1993" d="M1783.688,393.8l7.648,8.656,10.281,5.264-.712,11.529,3.546,10.992-8.655,7.648-5.264,10.28L1779,447.461l-10.993,3.546-7.648-8.655-10.28-5.265.712-11.528-3.546-10.992,8.655-7.648,5.265-10.281,11.528.712Z" transform="translate(-842.504 7277.579)" fill="none" stroke="#000" stroke-linecap="round" stroke-linejoin="round" stroke-width="2"/>
  </g>
</svg>
