<svg xmlns="http://www.w3.org/2000/svg" width="37" height="37" viewBox="0 0 37 37">
  <g id="Group_4742" data-name="Group 4742" transform="translate(-874 -8423)">
    <circle id="Ellipse_164" data-name="Ellipse 164" cx="18.5" cy="18.5" r="18.5" transform="translate(874 8423)" fill="#fff"/>
    <path id="iconmonstr-twitter-1" d="M16.4,3.826a6.718,6.718,0,0,1-1.933.53,3.37,3.37,0,0,0,1.479-1.861,6.74,6.74,0,0,1-2.137.817A3.367,3.367,0,0,0,8.077,6.379,9.552,9.552,0,0,1,1.142,2.864,3.369,3.369,0,0,0,2.183,7.356,3.35,3.35,0,0,1,.659,6.935a3.367,3.367,0,0,0,2.7,3.342,3.373,3.373,0,0,1-1.52.057A3.367,3.367,0,0,0,4.982,12.67,6.765,6.765,0,0,1,0,14.064a9.525,9.525,0,0,0,5.158,1.512A9.516,9.516,0,0,0,14.721,5.568,6.85,6.85,0,0,0,16.4,3.826Z" transform="translate(884.3 8433.034)" fill="#0e183f"/>
  </g>
</svg>
